<svg width="29" height="29" viewBox="0 0 29 29" fill="none" xmlns="http://www.w3.org/2000/svg">
<path d="M25.7029 23.93C27.1365 22.2021 28.1336 20.1537 28.6098 17.9582C29.0861 15.7626 29.0274 13.4845 28.4388 11.3164C27.8502 9.14837 26.749 7.15423 25.2283 5.50267C23.7077 3.85112 21.8123 2.59075 19.7025 1.82818C17.5927 1.06561 15.3306 0.823278 13.1076 1.12168C10.8845 1.42008 8.76592 2.25043 6.93099 3.5425C5.09606 4.83457 3.59877 6.55034 2.5658 8.54467C1.53283 10.539 0.994562 12.7532 0.996526 15C0.99728 18.2662 2.14629 21.4278 4.24192 23.93L4.22196 23.947C4.29184 24.031 4.3717 24.103 4.44357 24.186C4.53342 24.289 4.63025 24.386 4.72309 24.486C5.00261 24.79 5.29011 25.082 5.59159 25.356C5.68343 25.44 5.77827 25.518 5.87111 25.598C6.19056 25.874 6.51899 26.136 6.8594 26.38C6.90332 26.41 6.94326 26.449 6.98718 26.48V26.468C9.32524 28.1162 12.1144 29.0007 14.9734 29.0007C17.8323 29.0007 20.6215 28.1162 22.9596 26.468V26.48C23.0035 26.449 23.0424 26.41 23.0874 26.38C23.4268 26.135 23.7562 25.874 24.0757 25.598C24.1685 25.518 24.2633 25.439 24.3552 25.356C24.6567 25.081 24.9442 24.79 25.2237 24.486C25.3165 24.386 25.4124 24.289 25.5032 24.186C25.5741 24.103 25.6549 24.031 25.7248 23.946L25.7029 23.93ZM14.9724 7C15.8609 7 16.7294 7.26392 17.4681 7.75838C18.2069 8.25285 18.7827 8.95565 19.1227 9.77792C19.4627 10.6002 19.5516 11.505 19.3783 12.3779C19.205 13.2508 18.7771 14.0526 18.1489 14.682C17.5206 15.3113 16.7202 15.7399 15.8488 15.9135C14.9774 16.0872 14.0741 15.998 13.2533 15.6575C12.4324 15.3169 11.7308 14.7401 11.2372 14.0001C10.7436 13.26 10.4801 12.39 10.4801 11.5C10.4801 10.3065 10.9534 9.16193 11.7959 8.31802C12.6384 7.4741 13.781 7 14.9724 7ZM6.99317 23.93C7.01049 22.617 7.54317 21.3636 8.47597 20.4409C9.40877 19.5183 10.6667 19.0007 11.9776 19H17.9672C19.2781 19.0007 20.536 19.5183 21.4688 20.4409C22.4016 21.3636 22.9343 22.617 22.9516 23.93C20.7622 25.9063 17.9196 27.0001 14.9724 27.0001C12.0252 27.0001 9.18255 25.9063 6.99317 23.93Z" fill="black"/>
</svg>
