<svg width="8" height="12" viewBox="0 0 8 12" fill="none" xmlns="http://www.w3.org/2000/svg">
<path d="M0.698083 0.431496C0.534046 0.595583 0.441895 0.818103 0.441895 1.05012C0.441895 1.28214 0.534046 1.50466 0.698083 1.66875L5.02933 6L0.698083 10.3312C0.538694 10.4963 0.450499 10.7173 0.452493 10.9467C0.454486 11.1761 0.546509 11.3956 0.708741 11.5578C0.870974 11.7201 1.09043 11.8121 1.31986 11.8141C1.54928 11.8161 1.77031 11.7279 1.93533 11.5685L6.88521 6.61862C7.04924 6.45453 7.1414 6.23202 7.1414 6C7.1414 5.76798 7.04924 5.54546 6.88521 5.38137L1.93533 0.431496C1.77125 0.267459 1.54873 0.175308 1.31671 0.175308C1.08469 0.175308 0.86217 0.267459 0.698083 0.431496Z" fill="white"/>
</svg>
