<svg width="12" height="8" viewBox="0 0 12 8" fill="none" xmlns="http://www.w3.org/2000/svg">
<path d="M11.5685 0.698083C11.4044 0.534046 11.1819 0.441895 10.9499 0.441895C10.7179 0.441895 10.4954 0.534046 10.3313 0.698083L6.00002 5.02933L1.66877 0.698083C1.50374 0.538694 1.28271 0.450499 1.05329 0.452493C0.82387 0.454486 0.604409 0.546509 0.442177 0.708741C0.279944 0.870974 0.187922 1.09043 0.185929 1.31986C0.183936 1.54928 0.272131 1.77031 0.431519 1.93533L5.38139 6.88521C5.54548 7.04924 5.768 7.1414 6.00002 7.1414C6.23204 7.1414 6.45456 7.04924 6.61864 6.88521L11.5685 1.93533C11.7326 1.77125 11.8247 1.54873 11.8247 1.31671C11.8247 1.08469 11.7326 0.86217 11.5685 0.698083Z" fill="white"/>
</svg>
