<svg width="25" height="25" viewBox="0 0 25 25" fill="none" xmlns="http://www.w3.org/2000/svg">
<path d="M20.0781 7.26562L14.6094 1.79687C14.4531 1.64062 14.2969 1.5625 14.0625 1.5625H6.25C5.39062 1.5625 4.6875 2.26562 4.6875 3.125V21.875C4.6875 22.7344 5.39062 23.4375 6.25 23.4375H18.75C19.6094 23.4375 20.3125 22.7344 20.3125 21.875V7.8125C20.3125 7.57812 20.2344 7.42188 20.0781 7.26562ZM14.0625 3.4375L18.4375 7.8125H14.0625V3.4375ZM18.75 21.875H6.25V3.125H12.5V7.8125C12.5 8.67188 13.2031 9.375 14.0625 9.375H18.75V21.875Z" fill="white"/>
<path d="M7.8125 17.1875H17.1875V18.75H7.8125V17.1875Z" fill="white"/>
<path d="M7.8125 12.5H17.1875V14.0625H7.8125V12.5Z" fill="white"/>
</svg>
