<svg width="35" height="21" viewBox="0 0 35 21" fill="none" xmlns="http://www.w3.org/2000/svg">
<path fill-rule="evenodd" clip-rule="evenodd" d="M0.625 2.0625C0.625 1.28585 1.2546 0.65625 2.03125 0.65625H32.9688C33.7454 0.65625 34.375 1.28585 34.375 2.0625C34.375 2.83915 33.7454 3.46875 32.9688 3.46875H2.03125C1.2546 3.46875 0.625 2.83915 0.625 2.0625Z" fill="black"/>
<path fill-rule="evenodd" clip-rule="evenodd" d="M0.625 10.5C0.625 9.72335 1.2546 9.09375 2.03125 9.09375H32.9688C33.7454 9.09375 34.375 9.72335 34.375 10.5C34.375 11.2767 33.7454 11.9062 32.9688 11.9062H2.03125C1.2546 11.9062 0.625 11.2767 0.625 10.5Z" fill="black"/>
<path fill-rule="evenodd" clip-rule="evenodd" d="M0.625 18.9375C0.625 18.1608 1.2546 17.5312 2.03125 17.5312H32.9688C33.7454 17.5312 34.375 18.1608 34.375 18.9375C34.375 19.7142 33.7454 20.3438 32.9688 20.3438H2.03125C1.2546 20.3438 0.625 19.7142 0.625 18.9375Z" fill="black"/>
</svg>
