<svg width="18" height="18" viewBox="0 0 18 18" fill="none" xmlns="http://www.w3.org/2000/svg">
<path d="M0.566398 3.87202H0.569518C0.569579 4.02738 0.63095 4.17644 0.740295 4.28681C0.84964 4.39718 0.998123 4.45993 1.15348 4.46144V4.46196H16.8468V4.4617C17.0028 4.46101 17.1521 4.39859 17.2622 4.28809C17.3723 4.17758 17.4341 4.02799 17.4342 3.87202H17.4368V1.15268C17.4365 0.996401 17.3742 0.846614 17.2636 0.736203C17.153 0.625793 17.0031 0.563781 16.8468 0.563782H1.15348C0.997037 0.563851 0.847023 0.626027 0.736403 0.736647C0.625783 0.847268 0.563606 0.997281 0.563538 1.15372C0.563538 1.16386 0.566137 1.17348 0.566657 1.18362L0.566398 3.87202Z" fill="white"/>
<path d="M16.8466 7.05104H1.15348C0.997037 7.05111 0.847023 7.11329 0.736403 7.22391C0.625783 7.33453 0.563606 7.48454 0.563538 7.64098C0.563538 7.65112 0.566137 7.66074 0.566657 7.67088V10.3593H0.569778C0.569839 10.5146 0.63121 10.6637 0.740555 10.7741C0.8499 10.8844 0.998383 10.9472 1.15374 10.9487V10.9492H16.8471V10.949C17.003 10.9483 17.1524 10.8859 17.2625 10.7753C17.3725 10.6648 17.4343 10.5152 17.4344 10.3593H17.437V7.63994C17.4365 7.48363 17.3741 7.33389 17.2634 7.22351C17.1528 7.11312 17.0029 7.05111 16.8466 7.05104Z" fill="white"/>
<path d="M16.8466 13.538H1.15348C0.997037 13.5381 0.847023 13.6003 0.736403 13.7109C0.625783 13.8215 0.563606 13.9715 0.563538 14.128C0.563538 14.1381 0.566137 14.1477 0.566657 14.1579V16.8463H0.569778C0.569839 17.0016 0.63121 17.1507 0.740555 17.2611C0.8499 17.3714 0.998383 17.4342 1.15374 17.4357V17.4362H16.8471C17.0031 17.4355 17.1524 17.3727 17.2625 17.2622C17.3725 17.1516 17.4344 17.002 17.4344 16.846H17.437V14.1267C17.4365 13.9704 17.374 13.8207 17.2634 13.7104C17.1527 13.6001 17.0028 13.5381 16.8466 13.538Z" fill="white"/>
</svg>
