<svg width="25" height="25" viewBox="0 0 25 25" fill="none" xmlns="http://www.w3.org/2000/svg">
<path d="M14.8438 16.4062H10.1562C9.53465 16.4063 8.93851 16.6532 8.49897 17.0927C8.05943 17.5323 7.8125 18.1284 7.8125 18.75V20.3125H9.375V18.75C9.375 18.5428 9.45731 18.3441 9.60382 18.1976C9.75034 18.0511 9.94905 17.9688 10.1562 17.9688H14.8438C15.051 17.9688 15.2497 18.0511 15.3962 18.1976C15.5427 18.3441 15.625 18.5428 15.625 18.75V20.3125H17.1875V18.75C17.1875 18.1284 16.9406 17.5323 16.501 17.0927C16.0615 16.6532 15.4654 16.4063 14.8438 16.4062Z" fill="white"/>
<path d="M12.5 15.625C13.1181 15.625 13.7223 15.4417 14.2362 15.0983C14.7501 14.755 15.1506 14.2669 15.3871 13.6959C15.6236 13.1249 15.6855 12.4965 15.565 11.8903C15.4444 11.2842 15.1467 10.7273 14.7097 10.2903C14.2727 9.85325 13.7158 9.55563 13.1097 9.43505C12.5035 9.31447 11.8751 9.37635 11.3041 9.61288C10.7331 9.8494 10.245 10.2499 9.90166 10.7638C9.55828 11.2777 9.375 11.8819 9.375 12.5C9.375 13.3288 9.70424 14.1237 10.2903 14.7097C10.8763 15.2958 11.6712 15.625 12.5 15.625ZM12.5 10.9375C12.809 10.9375 13.1111 11.0291 13.3681 11.2008C13.625 11.3725 13.8253 11.6165 13.9436 11.9021C14.0618 12.1876 14.0928 12.5017 14.0325 12.8048C13.9722 13.1079 13.8234 13.3863 13.6049 13.6049C13.3863 13.8234 13.1079 13.9722 12.8048 14.0325C12.5017 14.0928 12.1876 14.0618 11.9021 13.9436C11.6165 13.8253 11.3725 13.625 11.2008 13.3681C11.0291 13.1111 10.9375 12.809 10.9375 12.5C10.9375 12.0856 11.1021 11.6882 11.3951 11.3951C11.6882 11.1021 12.0856 10.9375 12.5 10.9375Z" fill="white"/>
<path d="M19.5312 3.90625H17.1875V3.125C17.1875 2.7106 17.0229 2.31317 16.7299 2.02015C16.4368 1.72712 16.0394 1.5625 15.625 1.5625H9.375C8.9606 1.5625 8.56317 1.72712 8.27015 2.02015C7.97712 2.31317 7.8125 2.7106 7.8125 3.125V3.90625H5.46875C5.05435 3.90625 4.65692 4.07087 4.3639 4.3639C4.07087 4.65692 3.90625 5.05435 3.90625 5.46875V21.875C3.90625 22.2894 4.07087 22.6868 4.3639 22.9799C4.65692 23.2729 5.05435 23.4375 5.46875 23.4375H19.5312C19.9457 23.4375 20.3431 23.2729 20.6361 22.9799C20.9291 22.6868 21.0938 22.2894 21.0938 21.875V5.46875C21.0938 5.05435 20.9291 4.65692 20.6361 4.3639C20.3431 4.07087 19.9457 3.90625 19.5312 3.90625ZM9.375 3.125H15.625V6.25H9.375V3.125ZM19.5312 21.875H5.46875V5.46875H7.8125V7.8125H17.1875V5.46875H19.5312V21.875Z" fill="white"/>
</svg>
