<svg width="20" height="20" viewBox="0 0 20 20" fill="none" xmlns="http://www.w3.org/2000/svg">
<g clip-path="url(#clip0_187_1699)">
<path d="M1.875 0C1.37772 0 0.900805 0.197544 0.549175 0.549175C0.197544 0.900805 0 1.37772 0 1.875L0 16.25C0 16.5815 0.131696 16.8995 0.366117 17.1339C0.600537 17.3683 0.918479 17.5 1.25 17.5V1.875C1.25 1.70924 1.31585 1.55027 1.43306 1.43306C1.55027 1.31585 1.70924 1.25 1.875 1.25H17.5C17.5 0.918479 17.3683 0.600537 17.1339 0.366117C16.8995 0.131696 16.5815 0 16.25 0L1.875 0Z" fill="white"/>
<path d="M4.375 2.5C3.87772 2.5 3.40081 2.69754 3.04917 3.04917C2.69754 3.40081 2.5 3.87772 2.5 4.375V18.125C2.5 18.6223 2.69754 19.0992 3.04917 19.4508C3.40081 19.8025 3.87772 20 4.375 20H11.9825C12.4796 19.9996 12.9562 19.8017 13.3075 19.45L19.4513 13.3075C19.8025 12.956 19.9999 12.4794 20 11.9825V4.375C20 3.87772 19.8025 3.40081 19.4508 3.04917C19.0992 2.69754 18.6223 2.5 18.125 2.5H4.375ZM3.75 4.375C3.75 4.20924 3.81585 4.05027 3.93306 3.93306C4.05027 3.81585 4.20924 3.75 4.375 3.75H18.125C18.2908 3.75 18.4497 3.81585 18.5669 3.93306C18.6842 4.05027 18.75 4.20924 18.75 4.375V11.25H13.125C12.6277 11.25 12.1508 11.4475 11.7992 11.7992C11.4475 12.1508 11.25 12.6277 11.25 13.125V18.75H4.375C4.20924 18.75 4.05027 18.6842 3.93306 18.5669C3.81585 18.4497 3.75 18.2908 3.75 18.125V4.375ZM12.5 18.4913V13.125C12.5 12.9592 12.5658 12.8003 12.6831 12.6831C12.8003 12.5658 12.9592 12.5 13.125 12.5H18.4913L12.5 18.4913Z" fill="white"/>
</g>
<defs>
<clipPath id="clip0_187_1699">
<rect width="20" height="20" fill="white"/>
</clipPath>
</defs>
</svg>
