<svg width="20" height="20" viewBox="0 0 20 20" fill="none" xmlns="http://www.w3.org/2000/svg">
<path d="M10 10C8.76234 10 7.57536 9.50834 6.70019 8.63317C5.82502 7.758 5.33335 6.57101 5.33335 5.33333C5.33335 4.09566 5.82502 2.90867 6.70019 2.0335C7.57536 1.15833 8.76234 0.666668 10 0.666668C11.2377 0.666668 12.4247 1.15833 13.2999 2.0335C14.175 2.90867 14.6667 4.09566 14.6667 5.33333C14.6667 6.57101 14.175 7.758 13.2999 8.63317C12.4247 9.50834 11.2377 10 10 10ZM10 13.5C13.717 13.5 17.0525 14.1662 19.3334 17.0735V19.3333H0.666687V17.0735C2.94752 14.165 6.28302 13.5 10 13.5Z" fill="white"/>
</svg>
